<?xml version="1.0" encoding="UTF-8" standalone="no"?>
<svg
   xmlns:dc="http://purl.org/dc/elements/1.1/"
   xmlns:cc="http://creativecommons.org/ns#"
   xmlns:rdf="http://www.w3.org/1999/02/22-rdf-syntax-ns#"
   xmlns:svg="http://www.w3.org/2000/svg"
   xmlns="http://www.w3.org/2000/svg"
   viewBox="0 0 1000 210"
   height="210"
   width="1000"
   version="1.1"
   id="svg2">
  <metadata
     id="metadata8">
    <rdf:RDF>
      <cc:Work
         rdf:about="">
        <dc:format>image/svg+xml</dc:format>
        <dc:type
           rdf:resource="http://purl.org/dc/dcmitype/StillImage" />
        <dc:title></dc:title>
      </cc:Work>
    </rdf:RDF>
  </metadata>
  <defs
     id="defs6" />
  <path
     id="path3338"
     d="m 3.7499994,203.125 0,-3.125 L 500,200 l 496.25,0 0,3.125 0,3.125 -496.25,0 -496.2500006,0 z M 860.625,184.79467 c -5.55081,-3.06247 -9.53233,-8.0887 -11.197,-14.13495 -2.43816,-8.85566 -3.53042,-25.373 -2.49771,-37.77071 l 0.87902,-10.55245 10.09099,-6.75597 c 5.55004,-3.71578 10.29658,-6.55038 10.54785,-6.2991 0.25128,0.25127 -0.18694,5.15635 -0.9738,10.90018 -0.78687,5.74383 -1.52488,17.75583 -1.64001,26.69333 -0.23115,17.94362 1.21764,23.41565 6.39496,24.15339 2.31913,0.33045 3.32964,-0.68642 5.5899,-5.625 2.37961,-5.19938 2.75733,-8.1771 2.74666,-21.65339 -0.0176,-22.24558 -1.4577,-26.33434 -16.72984,-47.499999 -12.75266,-17.67392 -20.30575,-39.21698 -20.36983,-58.09925 -0.0835,-24.60284 8.20612,-35.2240597 26.67703,-34.1803597 9.24207,0.52223 12.46395,2.48786 17.53985,10.7008397 3.04173,4.92161 5.96338,20.33585 6.02332,31.77828 l 0.0436,8.32452 -9.31612,5.11298 c -5.12387,2.81215 -9.48324,5.11311 -9.6875,5.11326 -0.20425,1.5e-4 -0.37138,-9.42172 -0.37138,-20.9375 0,-15.02928 -0.46481,-21.75287 -1.64712,-23.82623 -4.04034,-7.08525 -8.1725,1.28691 -8.77328,17.77553 -0.80291,22.03621 2.38189,32.0344 15.90738,49.93872 10.32032,13.661499 12.99947,18.782519 16.4981,31.535119 2.18313,7.95761 2.54887,12.0114 2.06645,22.904 -0.66384,14.9886 -2.87299,23.20863 -8.53443,31.75585 -5.15153,7.7774 -12.56846,12.11611 -20.62692,12.06623 -3.3771,-0.0209 -7.26518,-0.65869 -8.64017,-1.41732 z M 29.583329,184.16666 c -1.62422,-1.62421 -0.7994,-3.88396 1.65162,-4.52491 1.36672,-0.35741 3.05422,-2.14713 3.75,-3.97716 0.80472,-2.11659 1.26505,-31.93558 1.26505,-81.947269 l 0,-78.61993 -2.7357,-2.5487 c -1.50464,-1.40178 -3.47339,-2.54869 -4.375,-2.54869 -0.90162,0 -1.6393,-1.1249997 -1.6393,-2.4999997 0,-2.42908 0.83333,-2.5 29.375,-2.5 l 29.375,0 0,29.9999997 c 0,28.42736 -0.12203,30 -2.3279,30 -1.89807,0 -2.48125,-1.30481 -3.15846,-7.06678 -1.13085,-9.62178 -6.31536,-24.59287 -10.74727,-31.03443 -3.62993,-5.27593 -11.41437,-10.22741 -13.78021,-8.76524 -0.75683,0.46775 -1.23616,11.89855 -1.23616,29.47945 0,24.79045 0.26498,28.81714 1.9386,29.45937 2.43026,0.93258 7.84185,-3.92124 9.97555,-8.94737 0.87558,-2.0625 1.9929,-6.98438 2.48294,-10.9375 0.60255,-4.86082 1.45131,-7.1875 2.62194,-7.1875 1.4356,0 1.73097,6.3071 1.73097,36.96194 l 0,36.961939 -2.8125,-0.39944 c -2.45711,-0.34897 -2.91991,-1.37309 -3.66252,-8.10485 -0.46751,-4.23797 -1.72992,-9.40695 -2.80536,-11.48662 -2.14257,-4.143269 -6.77168,-7.952849 -8.42333,-6.932069 -0.57546,0.35565 -1.04629,18.010769 -1.04629,39.233589 0,40.90676 -0.0896,40.24254 5.87982,43.5832 1.19482,0.66865 1.69135,1.94386 1.22753,3.15257 -0.66063,1.72155 -3.12564,2.02974 -16.23479,2.02974 -8.50074,0 -15.83089,-0.375 -16.28923,-0.83334 z m 79.610631,-1.06271 c -0.4434,-1.15548 0.54839,-2.89973 2.53923,-4.46573 L 115,176.06855 l 0,-81.760459 0,-81.76046 -3.125,-0.78433 c -1.97697,-0.49618 -3.125,-1.66669 -3.125,-3.1861597 0,-2.26172 0.92887,-2.38142 15.92217,-2.05199 14.00713,0.30777 15.97262,0.61295 16.34165,2.53735 0.27885,1.4541397 -0.36555,2.1874997 -1.92217,2.1874997 -5.38714,0 -5.34113,-0.71935 -5.35291,83.6875 l -0.0113,80.687499 3.95191,3.2484 c 6.20696,5.10202 4.06764,6.1266 -12.7924,6.1266 -12.22336,0 -15.09878,-0.34741 -15.69304,-1.89605 z m 62.47749,-0.0586 c -0.45761,-1.19248 0.28884,-2.68241 1.91423,-3.82088 l 2.66432,-1.8662 0,-82.344889 c 0,-81.24706 -0.0333,-82.35546 -2.5,-83.13835 -1.375,-0.43641 -2.5,-1.8805597 -2.5,-3.2092397 0,-2.23896 0.99064,-2.41579 13.53352,-2.41579 l 13.53354,0 7.23383,37.1874997 c 10.95022,56.29258 10.0245,55.37619 10.41755,10.3125 0.33347,-38.23386 0.27007,-39.43515 -2.1875,-41.45037 -1.39202,-1.14145 -2.53094,-2.9695697 -2.53094,-4.0624997 0,-1.66898 1.80119,-1.98713 11.25,-1.98713 10.34951,0 11.25,0.19659 11.25,2.45602 0,1.3508097 -1.125,3.0580997 -2.5,3.7939797 -2.46263,1.31796 -2.5,2.61728 -2.5,86.91898 l 0,85.581019 -8.72619,0 c -8.03009,0 -8.77625,-0.22436 -9.3538,-2.8125 -0.72182,-3.23471 -3.22879,-17.15461 -11.31245,-62.8125 -3.16475,-17.875 -6.24555,-33.624999 -6.84622,-34.999999 -0.64957,-1.4869 -1.12643,16.601799 -1.17674,44.636909 l -0.0846,47.13691 3.28109,3.0424 C 199.55182,183.84671 197.51299,185 184.262,185 c -9.58635,0 -11.98326,-0.37212 -12.59055,-1.95471 z M 255.625,183.75 c -1.01615,-1.64416 0.34322,-3.75 2.42071,-3.75 0.9065,0 2.23069,-0.70313 2.94264,-1.5625 1.5119,-1.82495 1.55892,-2.27739 7.14167,-68.70877 7.09903,-84.474319 8.26627,-97.730419 8.86907,-100.7248787 0.5387,-2.67599 1.10638,-2.84592 8.35195,-2.5 l 7.77396,0.37115 1.4687,15.6249997 c 0.80779,8.59375 2.64452,29.6875 4.08164,46.875 6.08772,72.807219 8.96449,105.121439 9.52545,106.997799 0.3285,1.0988 2.03689,2.65374 3.79642,3.45544 6.23725,2.84188 2.75873,4.52965 -10.11334,4.90696 -13.9948,0.41023 -16.44239,-0.66574 -11.63963,-5.11679 3.40133,-3.15226 3.44221,-3.96067 1.18157,-23.36841 l -0.80081,-6.875 -6.4564,-0.37415 -6.45641,-0.37414 -0.75979,8.49914 c -0.41789,4.67454 -0.98395,10.67826 -1.25794,13.34163 -0.39717,3.86093 0.11538,5.456 2.5287,7.86932 5.69548,5.69547 4.33037,6.6632 -9.39939,6.6632 -6.9358,0 -12.76757,-0.5523 -13.19877,-1.25 z m 33.13326,-49.0625 c 0.0163,-7.99895 -3.92574,-52.860269 -4.85149,-55.211509 -0.87447,-2.22102 -2.44023,13.44816 -4.70516,47.086509 l -0.82061,12.1875 5.1845,0 c 5.01415,0 5.18477,-0.13349 5.19276,-4.0625 z m 43.3488,49.5029 c -1.7212,-1.7212 -0.75752,-3.61305 2.90084,-5.69476 l 3.7421,-2.12937 0,-81.058129 c 0,-84.80013 0.0471,-84.05814 -5.34165,-84.05814 -1.5573,0 -2.20055,-0.73272 -1.92039,-2.1874997 0.37437,-1.94389 2.15752,-2.1875 16.01204,-2.1875 13.85452,0 15.63767,0.24361 16.01204,2.1875 0.25022,1.2993297 -0.34098,2.1874997 -1.4561,2.1874997 -1.03255,0 -2.7613,0.88393 -3.84165,1.96428 -1.7441,1.7441 -1.96429,10.78193 -1.96429,80.625 0,85.365389 -0.26845,82.338269 6.6853,75.384509 6.70826,-6.70827 13.26417,-25.93475 17.10415,-50.16129 1.32557,-8.36313 1.67031,-9.0625 4.46709,-9.0625 l 3.03066,0 -0.3311,37.1875 -0.3311,37.1875 -26.95544,0.33624 c -14.82549,0.18492 -27.34111,-0.0495 -27.8125,-0.52084 z m 112.47628,-0.0238 C 443.09266,182.67599 443.70431,180 445.53571,180 c 0.98215,0 2.66965,-0.88393 3.75,-1.96429 1.7454,-1.7454 1.96429,-11.01302 1.96429,-83.167149 l 0,-81.20288 -4.375,-2.58131 C 444.46875,9.6646513 442.5,7.7148713 442.5,6.7515313 c 0,-1.45235 5.01754,-1.75153 29.375,-1.75153 l 29.375,0 0,30.0916497 c 0,27.53094 -0.17905,30.05718 -2.104,29.68646 -1.55739,-0.29992 -2.49565,-2.7296 -3.61153,-9.35218 -3.57712,-21.22993 -11.01436,-34.13394 -21.47197,-37.25501 l -2.8125,-0.83939 0,30.08423 c 0,32.19211 0.17141,32.97902 6.00095,27.54798 4.29811,-4.0043 6.71861,-9.77062 7.43976,-17.72365 0.53264,-5.87408 1.07124,-7.27666 2.67559,-6.96769 1.78984,0.34469 2.0087,4.33467 2.0087,36.61972 0,36.136509 -0.007,36.233899 -2.69064,36.616349 -2.30123,0.32797 -2.80548,-0.39566 -3.48416,-5 -1.45979,-9.90345 -3.49531,-15.96184 -6.42506,-19.123099 -1.59818,-1.72445 -3.49513,-3.13537 -4.21545,-3.13537 -0.88561,0 -1.30969,12.942659 -1.30969,39.971189 l 0,39.97117 3.125,2.04759 c 1.71875,1.12616 3.125,3.10789 3.125,4.40381 0,2.18591 -1.15959,2.35624 -16.04166,2.35624 -8.82293,0 -16.41668,-0.375 -16.875,-0.83334 z M 516.25,182.5 c 0,-1.375 0.77487,-2.5 1.72195,-2.5 4.49539,0 4.47063,0.21284 16.35913,-140.624999 1.0446,-12.375 2.21941,-24.89063 2.61068,-27.8125 l 0.71143,-5.3124997 8.0484,0 c 5.74583,0 8.04841,0.46214 8.04841,1.61535 0,0.88844 1.09696,14.2478197 2.43769,29.6874997 1.34073,15.43968 3.03145,35.38465 3.75714,44.32215 3.791,46.688869 7.72953,91.572969 8.25222,94.043459 0.35621,1.68362 1.84988,3.10941 3.75953,3.5887 2.03391,0.51049 3.02895,1.52441 2.7788,2.83154 -0.32441,1.69514 -2.53388,2.09599 -13.18754,2.39252 -11.80552,0.32862 -12.79784,0.17455 -12.79784,-1.98684 0,-1.31297 1.4352,-2.99702 3.26444,-3.83047 3.07327,-1.40028 3.22105,-1.86952 2.52336,-8.01315 -0.40759,-3.58916 -1.10549,-10.04138 -1.55089,-14.33826 l -0.80982,-7.8125 -6.6236,0 -6.6236,0 -0.9635,7.1875 c -0.52993,3.95313 -0.99228,10.5625 -1.02745,14.6875 -0.0564,6.61046 0.26964,7.64635 2.74856,8.73391 1.54688,0.67865 2.8125,2.22553 2.8125,3.4375 0,1.96488 -1.42182,2.20359 -13.125,2.20359 -12.29166,0 -13.125,-0.15872 -13.125,-2.5 z m 34.11754,-44.6875 c 0.58935,-1.07268 -4.1457,-60.664919 -4.88333,-61.458339 -1.59496,-1.7156 -2.55369,4.01133 -4.44414,26.546989 -1.16376,13.87312 -2.15512,27.61447 -2.20301,30.53635 l -0.0871,5.3125 5.55123,0 c 3.05317,0 5.78301,-0.42188 6.06631,-0.9375 z M 596.25,182.7778 c 0,-1.22221 1.125,-3.18545 2.5,-4.36276 2.4524,-2.09981 2.5,-3.68743 2.5,-83.392219 0,-79.89788 -0.0416,-81.27765 -2.5,-82.81291 -1.375,-0.8587 -2.5,-2.5509697 -2.5,-3.7605897 0,-1.95797 1.42517,-2.19932 12.98684,-2.19932 l 12.98685,0 8.57565,43.4374997 8.57566,43.4375 0.34344,-39.375 c 0.33347,-38.23386 0.27007,-39.43515 -2.1875,-41.45037 C 636.13892,11.158181 635,9.3300613 635,8.2371313 c 0,-1.66801 1.79484,-1.98713 11.17622,-1.98713 6.66242,0 11.5136,0.54587 12.01155,1.35157 0.45943,0.74337 -0.63237,2.8835197 -2.42622,4.7558997 l -3.26155,3.40433 0,84.619099 0,84.6191 -8.75,0 c -4.8125,0 -8.75,-0.50104 -8.75,-1.11341 0,-0.61238 -1.93472,-11.4405 -4.29938,-24.0625 -2.36466,-12.622 -6.36181,-34.48034 -8.88257,-48.57409 -2.52075,-14.093749 -5.06893,-26.468749 -5.66261,-27.499999 -0.62044,-1.07774 -1.09558,18.150809 -1.11743,45.221769 l -0.038,47.09678 3.26681,2.56967 c 1.99084,1.566 2.98263,3.31025 2.53924,4.46573 C 620.22614,184.61517 617.66033,185 608.16422,185 597.57981,185 596.25,184.75198 596.25,182.7778 Z m 102.5,0.2146 c 0,-1.10418 1.40625,-3.11375 3.125,-4.46573 l 3.125,-2.45812 0,-76.159279 c 0,-43.41045 -0.47626,-76.15927 -1.10758,-76.15927 -2.99867,0 -8.16448,18.7157 -10.78182,39.0625 -0.67552,5.25142 -1.11603,5.9375 -3.81219,5.9375 l -3.04841,0 0,-31.25 0,-31.2499997 28.125,0 28.125,0 0,31.2499997 0,31.25 -3.75,0 c -3.11137,0 -3.75,-0.50431 -3.75,-2.96126 0,-10.00673 -6.28191,-36.06124 -9.52228,-39.4941 -1.47141,-1.55882 -1.72772,9.51948 -1.72772,74.676909 0,75.15351 0.0443,76.53489 2.5,78.06854 1.375,0.8587 2.5,2.55097 2.5,3.7606 0,1.9769 -1.51691,2.19931 -15,2.19931 -12.94033,0 -15,-0.27566 -15,-2.0076 z m 64.58334,1.17426 c -1.75952,-1.75951 -0.70554,-3.92771 2.27262,-4.67518 3.89064,-0.97649 3.92488,-1.1411 6.26488,-30.11648 3.97953,-49.27717 12.00789,-140.0612887 12.51886,-141.5624987 0.34608,-1.01676 3.14534,-1.5625 8.01443,-1.5625 7.47042,0 7.48368,0.007 8.15603,4.0624997 0.3704,2.23437 3.21612,34.71875 6.32383,72.1875 3.1077,37.468749 6.20514,73.668969 6.88318,80.444939 0.67806,6.77597 1.23283,12.83491 1.23283,13.4643 0,0.6294 1.40625,1.78509 3.125,2.5682 1.71875,0.78312 3.125,2.45856 3.125,3.72321 0,2.07966 -1.19806,2.29935 -12.53923,2.29935 -10.22014,0 -12.67796,-0.36151 -13.28932,-1.95471 -0.46306,-1.20673 0.32076,-2.70478 2.04834,-3.91483 2.6501,-1.8562 2.75526,-2.53116 1.98385,-12.73278 -1.38849,-18.36215 -1.12533,-17.8316 -8.62895,-17.39659 l -6.44969,0.37391 -0.91221,11.875 c -1.07033,13.93322 -0.59009,17.05309 2.79011,18.12592 1.37341,0.4359 2.4971,1.87964 2.4971,3.20832 0,2.2239 -0.9762,2.41576 -12.29166,2.41576 -6.76043,0 -12.66668,-0.375 -13.125,-0.83334 z M 796.25,136.50965 c 0,-5.4719 -5.05506,-59.481379 -5.62009,-60.046409 -0.34645,-0.34645 -0.62991,0.56166 -0.62991,2.01802 0,2.24019 -1.74558,23.635779 -4.33066,53.081239 l -0.63102,7.1875 5.60584,0 c 4.55594,0 5.60584,-0.41959 5.60584,-2.24035 z m 136.25,46.44619 c 0,-1.12429 1.40625,-3.34743 3.125,-4.94032 l 3.125,-2.89615 0,-32.7134 c 0,-32.15631 -0.10648,-33.51435 -6.25279,-79.747189 -5.59161,-42.06043 -6.53149,-47.26509 -8.88847,-49.22128 -1.44964,-1.20313 -3.41714,-2.1875 -4.37221,-2.1875 -0.95509,0 -1.73653,-1.125 -1.73653,-2.4999997 0,-2.36111 0.83334,-2.5 15,-2.5 13.5511,0 15,0.21501 15,2.22595 0,1.34631 -1.54731,2.8099997 -3.91548,3.7038797 -3.39332,1.28084 -3.82512,1.94248 -3.23797,4.96155 0.37264,1.91599 2.23424,13.74924 4.13691,26.29612 1.90268,12.54687 3.83105,22.8125 4.28528,22.8125 1.19013,0 10.27635,-46.62055 9.77582,-50.15893 -0.23076,-1.63134 -1.68519,-3.52133 -3.23206,-4.19998 -1.54688,-0.67865 -2.8125,-2.2255297 -2.8125,-3.4374997 0,-1.96488 1.42182,-2.20359 13.125,-2.20359 12.29166,0 13.125,0.15873 13.125,2.5 0,1.3749997 -0.75658,2.4999997 -1.68126,2.4999997 -3.88322,0 -5.67038,4.72533 -8.27329,21.875 -1.46085,9.625 -4.8812,31.41699 -7.60078,48.42664 C 956.39249,111.58709 956.25,113.37804 956.25,143.70172 l 0,31.22344 3.75,2.77249 c 2.0625,1.52487 3.75,3.79171 3.75,5.03742 0,2.06578 -1.3739,2.26493 -15.625,2.26493 -13.63024,0 -15.625,-0.26096 -15.625,-2.04416 z"
     style="fill:#000000" />
</svg>
